<?xml version="1.0" standalone="no"?>
<!DOCTYPE svg PUBLIC "-//W3C//DTD SVG 20010904//EN"
 "http://www.w3.org/TR/2001/REC-SVG-20010904/DTD/svg10.dtd">
<svg version="1.0" xmlns="http://www.w3.org/2000/svg"
 width="700.000000pt" height="700.000000pt" viewBox="0 0 700.000000 700.000000"
 preserveAspectRatio="xMidYMid meet">
<metadata>
Created by potrace 1.14, written by Peter Selinger 2001-2017
</metadata>
<g transform="translate(0.000000,700.000000) scale(0.100000,-0.100000)"
fill="#000000" stroke="none">
<path d="M0 4325 l0 -2675 939 0 939 0 5 363 c3 247 10 405 21 497 94 767 326
1395 700 1895 107 144 391 431 551 559 438 350 959 591 1458 676 114 19 163
20 1253 20 l1134 0 0 670 0 670 -3500 0 -3500 0 0 -2675z"/>
<path d="M4515 5009 c-591 -102 -1207 -519 -1550 -1049 -231 -357 -379 -790
-457 -1335 -20 -140 -22 -201 -25 -877 l-4 -728 -1240 0 -1239 0 0 -510 0
-510 3500 0 3500 0 0 510 0 510 -1403 0 -1404 0 -6 491 c-8 694 14 922 125
1254 85 257 186 425 357 596 213 212 480 358 823 448 286 76 459 91 1041 91
l467 0 0 565 0 565 -1187 -1 c-1121 -1 -1194 -2 -1298 -20z"/>
<path d="M5835 3259 c-303 -29 -575 -118 -721 -238 -153 -125 -267 -352 -309
-616 -16 -105 -18 -144 -16 -492 l1 -263 1105 0 1105 0 0 810 0 810 -537 -1
c-296 -1 -578 -6 -628 -10z"/>
</g>
</svg>
