<svg xmlns="http://www.w3.org/2000/svg" version="1.1" xmlns:xlink="http://www.w3.org/1999/xlink" xmlns:svgjs="http://svgjs.com/svgjs" width="1000" height="1000"><rect width="1000" height="1000" rx="0" ry="0" fill="#ffffff"></rect><g transform="matrix(2,0,0,2,-725.864990234375,-182.6300048828125)"><svg xmlns="http://www.w3.org/2000/svg" version="1.1" xmlns:xlink="http://www.w3.org/1999/xlink" xmlns:svgjs="http://svgjs.com/svgjs" width="500" height="500"><svg version="1.1" id="Ebene_1" xmlns="http://www.w3.org/2000/svg" xmlns:xlink="http://www.w3.org/1999/xlink" x="0px" y="0px" viewBox="0 0 500 500" style="enable-background:new 0 0 500 500;" xml:space="preserve">
<style type="text/css">
	.st0{fill:#FFFFFF;}
	.st1{fill:#004C92;}
</style>
<g>
	<polygon class="st0" points="1951.62,865 1951.58,865 1951.73,865.26 	"></polygon>
	<path class="st1" d="M134.26,350.71c0,0-2.16-110.2,65.28-181.42c67.42-71.24,143.44-73.8,143.44-73.8H500V0H0v382.36h134.26
		V350.71z"></path>
	<path class="st1" d="M361.32,287.76c-22.7,23.98-19.38,62.73-19.38,62.73V382v0.37H500V266.48h-60.09
		C439.91,266.48,384,263.78,361.32,287.76z"></path>
	<path class="st1" d="M299.32,381.99c0,0-7.98-78.19,31.77-120.18c39.75-41.99,108.81-40.33,108.81-40.33H500v-81H341.94
		c0,0-57.98-3.49-113.27,54.92c-55.31,58.4-51.8,155.29-51.8,155.29v76.67H0V500h500v-72.91l-200.68,0.28V381.99z"></path>
</g>
</svg></svg></g></svg>