<?xml version="1.0" encoding="utf-8"?>
<!-- Generator: Adobe Illustrator 27.2.0, SVG Export Plug-In . SVG Version: 6.00 Build 0)  -->
<svg version="1.1" id="Ebene_1" xmlns="http://www.w3.org/2000/svg" xmlns:xlink="http://www.w3.org/1999/xlink" x="0px" y="0px"
	 viewBox="0 0 5 8.7" style="enable-background:new 0 0 5 8.7;" xml:space="preserve">
<style type="text/css">
	.st0{fill:#424242;}
</style>
<path class="st0" d="M1,0.2L4.9,4c0,0,0.1,0.1,0.1,0.1c0,0.1,0,0.1,0,0.2c0,0.1,0,0.1,0,0.2c0,0.1-0.1,0.1-0.1,0.1L1,8.6
	C0.9,8.7,0.7,8.7,0.6,8.7c-0.2,0-0.3-0.1-0.4-0.2C0.1,8.4,0,8.3,0,8.2C0,8,0.1,7.9,0.2,7.8l3.4-3.4L0.2,1C0.1,0.9,0,0.7,0,0.6
	s0.1-0.3,0.2-0.4C0.3,0.1,0.4,0,0.6,0C0.7,0,0.9,0.1,1,0.2z"/>
</svg>
