<?xml version="1.0" encoding="utf-8"?>
<!-- Generator: Adobe Illustrator 27.2.0, SVG Export Plug-In . SVG Version: 6.00 Build 0)  -->
<svg version="1.1" id="Ebene_1" xmlns="http://www.w3.org/2000/svg" xmlns:xlink="http://www.w3.org/1999/xlink" x="0px" y="0px"
	 viewBox="0 0 5 8.7" style="enable-background:new 0 0 5 8.7;" xml:space="preserve">
<style type="text/css">
	.st0{fill:#424242;}
</style>
<path class="st0" d="M4,8.6L0.1,4.7L0,4.6c0,0,0-0.1,0-0.2s0-0.1,0-0.2S0.1,4.1,0.1,4L4,0.2C4.1,0.1,4.3,0,4.4,0
	c0.2,0,0.3,0.1,0.4,0.2S5,0.4,5,0.6S4.9,0.9,4.8,1L1.4,4.4l3.4,3.4C4.9,7.9,5,8,5,8.2S4.9,8.5,4.8,8.6C4.7,8.7,4.6,8.7,4.4,8.7
	C4.3,8.7,4.1,8.7,4,8.6z"/>
</svg>
